<svg width="64" height="64" viewBox="0 0 64 64" fill="none" xmlns="http://www.w3.org/2000/svg">
  <defs>
    <linearGradient id="bg" x1="7" y1="6" x2="58" y2="59" gradientUnits="userSpaceOnUse">
      <stop stop-color="#B8DAF2"/>
      <stop offset="0.48" stop-color="#74C8C3"/>
      <stop offset="1" stop-color="#4F8DF7"/>
    </linearGradient>
    <linearGradient id="ribbon" x1="17" y1="20" x2="49" y2="44" gradientUnits="userSpaceOnUse">
      <stop stop-color="#FFFFFF"/>
      <stop offset="0.5" stop-color="#FFE8F0"/>
      <stop offset="1" stop-color="#FF8BA7"/>
    </linearGradient>
  </defs>
  <rect width="64" height="64" rx="18" fill="url(#bg)"/>
  <path d="M11 47c7.5-4.8 15-4.8 22.5 0S48.5 51.8 56 47" stroke="#EAFBFF" stroke-width="4" stroke-linecap="round" opacity="0.86"/>
  <path d="M19 37c6.5-12 18.5-12 26 0" stroke="url(#ribbon)" stroke-width="7" stroke-linecap="round"/>
  <path d="M45 27c-6.5 12-18.5 12-26 0" stroke="#FFFFFF" stroke-width="7" stroke-linecap="round"/>
  <path d="M20 27c7.2-7.8 17.8-7.8 25 0" stroke="#2F7ED8" stroke-width="3.2" stroke-linecap="round" opacity="0.75"/>
  <path d="M32 14l2.9 5.9 6.5.9-4.7 4.6 1.1 6.5-5.8-3.1-5.8 3.1 1.1-6.5-4.7-4.6 6.5-.9L32 14z" fill="#FFD66B"/>
  <circle cx="20" cy="38" r="4.6" fill="#FF8BA7"/>
  <circle cx="44" cy="38" r="4.6" fill="#FFFFFF"/>
  <circle cx="44" cy="38" r="2.2" fill="#4F8DF7"/>
  <path d="M18 51c3.7-3.1 8.1-3.1 11.8 0" stroke="#FFFFFF" stroke-width="3" stroke-linecap="round" opacity="0.9"/>
  <path d="M34 51c3.7-3.1 8.1-3.1 11.8 0" stroke="#FFFFFF" stroke-width="3" stroke-linecap="round" opacity="0.9"/>
</svg>
